<?xml version="1.0" encoding="utf-8"?>
<!-- Generator: Adobe Illustrator 19.0.0, SVG Export Plug-In . SVG Version: 6.00 Build 0)  -->
<svg version="1.1" id="Layer_1" xmlns="http://www.w3.org/2000/svg" xmlns:xlink="http://www.w3.org/1999/xlink" x="0px" y="0px"
	 viewBox="0 0 291 102" style="enable-background:new 0 0 291 102;" xml:space="preserve">
<style type="text/css">
	.st0{fill:#5E534C;}
	.st1{fill:#483D42;}
	.st2{fill:#766860;}
	.st3{fill:#E7B022;}
	.st4{fill:#E7AE22;}
	.st5{fill:#D99028;}
	.st6{fill:#F8D131;}
</style>
<g id="XMLID_96_">
	<g id="Logo_Symbol">
		<polyline id="XMLID_194_" class="st0" points="1.7,82.4 62.8,46.1 62.8,21.5 1.7,57.7 		"/>
		<polygon id="XMLID_193_" class="st1" points="62.8,46.1 62.8,21.5 39.8,35.1 		"/>
		<polygon id="XMLID_192_" class="st1" points="1.7,57.7 1.7,82.4 27.4,67.2 		"/>
		<polyline id="XMLID_191_" class="st2" points="1.7,82.4 32.2,100.7 32.2,76 1.7,57.8 		"/>
		<polygon id="XMLID_190_" class="st2" points="32.1,28.2 62.8,46.2 62.8,21.5 32.1,3.5 		"/>
		<polygon id="XMLID_189_" class="st3" points="32.2,28.2 1.7,46.2 1.7,21.5 32.2,3.5 		"/>
		<polyline id="XMLID_188_" class="st4" points="62.8,82.4 32.1,100.7 32.1,76 62.8,57.8 		"/>
		<polygon id="XMLID_187_" class="st5" points="1.7,21.5 1.7,46.2 27.5,30.9 		"/>
		<polygon id="XMLID_186_" class="st5" points="62.8,82.4 62.8,57.8 39.8,71.5 		"/>
		<polyline id="XMLID_185_" class="st6" points="62.8,82.4 1.7,46.1 1.7,21.5 62.8,57.7 		"/>
	</g>
	<g id="Sailotech_1_">
		<path id="XMLID_183_" class="st3" d="M107.6,35.5H93.7c-0.9,0-1.6,0.3-2.3,0.8c-0.7,0.5-1,1.3-1,2.3c0,0.6,0.1,1,0.3,1.4
			c0.2,0.4,0.4,0.7,0.7,0.9c0.3,0.2,0.7,0.4,1.1,0.5c0.4,0.1,0.8,0.2,1.3,0.2h7.9c0.7,0,1.4,0.1,2.3,0.3c0.8,0.2,1.6,0.6,2.4,1.2
			c0.7,0.6,1.4,1.3,1.9,2.3c0.5,1,0.8,2.2,0.8,3.7c0,1.5-0.3,2.7-0.8,3.7c-0.5,1-1.1,1.7-1.9,2.3c-0.7,0.6-1.5,1-2.4,1.2
			c-0.8,0.2-1.6,0.3-2.3,0.3H85v-4.4h14.2c0.5,0,0.9-0.1,1.3-0.2c0.4-0.2,0.8-0.4,1.1-0.7c0.3-0.3,0.5-0.6,0.7-1
			c0.2-0.4,0.3-0.8,0.3-1.3c0-0.9-0.3-1.7-1-2.3c-0.6-0.6-1.4-0.9-2.4-0.9h-7.9c-0.7,0-1.5-0.1-2.3-0.3c-0.8-0.2-1.6-0.6-2.4-1.2
			c-0.7-0.6-1.4-1.3-1.9-2.3c-0.5-1-0.8-2.2-0.8-3.7c0-1.5,0.3-2.7,0.8-3.7c0.5-1,1.1-1.7,1.9-2.3c0.7-0.6,1.5-0.9,2.4-1.2
			c0.8-0.2,1.6-0.3,2.3-0.3h16.4V35.5z"/>
		<path id="XMLID_180_" class="st3" d="M120,31.1h5.5l10.8,25.6h-5.8l-2.5-6.2h-10.5l-2.5,6.2h-5.8L120,31.1z M119.1,46.5h7.3
			l-3.7-9.1L119.1,46.5z"/>
		<path id="XMLID_178_" class="st3" d="M137.9,56.7V31.1h5.4v25.6H137.9z"/>
		<path id="XMLID_176_" class="st3" d="M151.4,56.2c-1.1-0.3-2-0.9-2.8-1.6c-0.8-0.7-1.5-1.7-1.9-2.9c-0.5-1.2-0.7-2.6-0.7-4.3V31.1
			h5.4v16c0,0.8,0.1,1.5,0.4,2.1c0.2,0.6,0.6,1.2,1,1.7c0.4,0.5,1,0.8,1.6,1.1c0.6,0.3,1.4,0.4,2.2,0.4h7v4.4h-8.9
			C153.6,56.7,152.5,56.6,151.4,56.2z"/>
		<path id="XMLID_173_" class="st3" d="M163.9,38.7c0.4-1.6,1.1-3,2-4.2c1-1.2,2.3-2.1,3.9-2.8c1.6-0.7,3.7-1,6.3-1
			c2.5,0,4.6,0.3,6.2,1c1.6,0.7,3,1.6,3.9,2.8c1,1.2,1.6,2.6,2,4.2c0.4,1.6,0.6,3.3,0.6,5.2c0,1.8-0.2,3.5-0.6,5.1
			c-0.4,1.6-1.1,3-2,4.2c-1,1.2-2.3,2.1-3.9,2.8c-1.6,0.7-3.7,1-6.2,1c-2.5,0-4.6-0.3-6.3-1c-1.6-0.7-3-1.6-3.9-2.8
			c-1-1.2-1.6-2.6-2-4.2c-0.4-1.6-0.6-3.3-0.6-5.1C163.4,42.1,163.5,40.3,163.9,38.7z M172.3,35.7c-0.9,0.5-1.7,1.2-2.2,2
			c-0.5,0.8-0.8,1.8-1,2.9c-0.1,1.1-0.2,2.2-0.2,3.3c0,1.1,0.1,2.3,0.2,3.3c0.1,1.1,0.5,2,1,2.9c0.5,0.8,1.2,1.5,2.2,2
			c0.9,0.5,2.2,0.8,3.8,0.8c1.6,0,2.9-0.3,3.8-0.8c0.9-0.5,1.6-1.2,2.1-2c0.5-0.8,0.8-1.8,1-2.9c0.1-1.1,0.2-2.2,0.2-3.3
			c0-1.1-0.1-2.2-0.2-3.3c-0.1-1.1-0.5-2-1-2.9c-0.5-0.8-1.2-1.5-2.1-2c-0.9-0.5-2.2-0.8-3.8-0.8C174.5,35,173.3,35.2,172.3,35.7z"
			/>
		<path id="XMLID_171_" class="st3" d="M211.2,31.1v4.4h-8.6v21.2h-5.4V35.5h-8.6v-4.4H211.2z"/>
		<path id="XMLID_169_" class="st3" d="M231.2,46h-14.4c0.3,2.2,0.9,3.9,1.9,4.8c1,1,2.4,1.5,4.2,1.5h8.7v4.4h-10.2
			c-3.5,0-6.1-1.1-7.9-3.3c-1.8-2.2-2.7-5.4-2.7-9.5c0-4.1,0.9-7.3,2.7-9.5c1.8-2.2,4.4-3.3,7.9-3.3h10.2v4.4h-8.7
			c-0.6,0-1.2,0.1-1.9,0.2c-0.6,0.1-1.3,0.4-1.8,0.8c-0.6,0.4-1.1,1-1.5,1.9c-0.4,0.8-0.7,2-0.9,3.5h14.4V46z"/>
		<path id="XMLID_167_" class="st3" d="M255,35.5h-9.3c-2.2,0-3.8,0.7-4.8,2.2c-1,1.4-1.4,3.5-1.4,6.3c0,2.7,0.5,4.8,1.4,6.3
			c1,1.4,2.6,2.2,4.8,2.2h9.3v4.4h-10.8c-3.5,0-6.1-1.1-7.9-3.3c-1.8-2.2-2.7-5.4-2.7-9.5c0-4.1,0.9-7.3,2.7-9.5
			c1.8-2.2,4.4-3.3,7.9-3.3H255V35.5z"/>
		<path id="XMLID_165_" class="st3" d="M257.6,31.1h5.4v10.7h10.2V31.1h5.4v25.6h-5.4V46H263v10.7h-5.4V31.1z"/>
	</g>
	<g id="Tagline_1_">
		<path id="XMLID_163_" class="st1" d="M89.1,73.2h-1.2V64h-3.2V63h7.7V64h-3.2V73.2z"/>
		<path id="XMLID_161_" class="st1" d="M97.9,65.4c0.3,0,0.6,0,0.9,0.1l-0.2,1.1c-0.3-0.1-0.6-0.1-0.8-0.1c-0.6,0-1.2,0.3-1.6,0.8
			c-0.4,0.5-0.7,1.1-0.7,1.9v4.1h-1.2v-7.7h1l0.1,1.4h0.1c0.3-0.5,0.6-0.9,1-1.2C97,65.5,97.5,65.4,97.9,65.4z"/>
		<path id="XMLID_158_" class="st1" d="M105.7,73.2l-0.2-1.1h-0.1c-0.4,0.5-0.8,0.8-1.1,1c-0.4,0.2-0.9,0.3-1.4,0.3
			c-0.8,0-1.4-0.2-1.8-0.6c-0.4-0.4-0.6-1-0.6-1.7c0-1.6,1.2-2.4,3.7-2.4l1.3,0v-0.5c0-0.6-0.1-1-0.4-1.3c-0.3-0.3-0.7-0.4-1.2-0.4
			c-0.6,0-1.4,0.2-2.2,0.6l-0.4-0.9c0.4-0.2,0.8-0.4,1.2-0.5c0.5-0.1,0.9-0.2,1.4-0.2c0.9,0,1.6,0.2,2,0.6c0.4,0.4,0.7,1.1,0.7,2
			v5.2H105.7z M103.1,72.4c0.7,0,1.3-0.2,1.7-0.6c0.4-0.4,0.6-1,0.6-1.7v-0.7l-1.2,0c-0.9,0-1.6,0.2-2,0.4c-0.4,0.3-0.6,0.7-0.6,1.2
			c0,0.4,0.1,0.7,0.4,1C102.3,72.3,102.6,72.4,103.1,72.4z"/>
		<path id="XMLID_156_" class="st1" d="M114.9,73.2v-5c0-0.6-0.1-1.1-0.4-1.4c-0.3-0.3-0.7-0.5-1.3-0.5c-0.8,0-1.4,0.2-1.8,0.7
			c-0.4,0.4-0.6,1.2-0.6,2.2v4h-1.2v-7.7h0.9l0.2,1.1h0.1c0.2-0.4,0.6-0.7,1-0.9c0.4-0.2,0.9-0.3,1.4-0.3c0.9,0,1.6,0.2,2.1,0.7
			c0.5,0.4,0.7,1.2,0.7,2.1v5H114.9z"/>
		<path id="XMLID_154_" class="st1" d="M124.1,71.1c0,0.7-0.3,1.3-0.8,1.7c-0.5,0.4-1.3,0.6-2.2,0.6c-1,0-1.8-0.2-2.4-0.5v-1.1
			c0.4,0.2,0.8,0.3,1.2,0.4c0.4,0.1,0.8,0.2,1.2,0.2c0.6,0,1.1-0.1,1.4-0.3c0.3-0.2,0.5-0.5,0.5-0.9c0-0.3-0.1-0.6-0.4-0.8
			c-0.3-0.2-0.8-0.5-1.5-0.8c-0.7-0.3-1.2-0.5-1.5-0.7c-0.3-0.2-0.5-0.4-0.7-0.7c-0.1-0.3-0.2-0.6-0.2-0.9c0-0.6,0.3-1.1,0.8-1.5
			c0.5-0.4,1.2-0.5,2.1-0.5c0.8,0,1.6,0.2,2.4,0.5l-0.4,0.9c-0.8-0.3-1.5-0.5-2.1-0.5c-0.6,0-1,0.1-1.2,0.3s-0.4,0.4-0.4,0.7
			c0,0.2,0.1,0.4,0.2,0.5c0.1,0.1,0.3,0.3,0.5,0.4c0.2,0.1,0.7,0.3,1.3,0.6c0.9,0.3,1.5,0.7,1.8,1C124,70.2,124.1,70.6,124.1,71.1z"
			/>
		<path id="XMLID_152_" class="st1" d="M130.2,66.4h-2v6.8h-1.2v-6.8h-1.4v-0.5l1.4-0.4v-0.4c0-1.9,0.8-2.8,2.5-2.8
			c0.4,0,0.9,0.1,1.4,0.2l-0.3,0.9c-0.4-0.1-0.8-0.2-1.1-0.2c-0.4,0-0.8,0.1-1,0.4c-0.2,0.3-0.3,0.8-0.3,1.4v0.5h2V66.4z"/>
		<path id="XMLID_149_" class="st1" d="M138.9,69.4c0,1.3-0.3,2.2-0.9,2.9c-0.6,0.7-1.5,1.1-2.6,1.1c-0.7,0-1.3-0.2-1.8-0.5
			c-0.5-0.3-0.9-0.8-1.2-1.4c-0.3-0.6-0.4-1.3-0.4-2.1c0-1.3,0.3-2.2,0.9-2.9c0.6-0.7,1.5-1,2.6-1c1.1,0,1.9,0.4,2.6,1.1
			C138.6,67.2,138.9,68.1,138.9,69.4z M133,69.4c0,1,0.2,1.7,0.6,2.2c0.4,0.5,1,0.8,1.7,0.8s1.3-0.3,1.7-0.8
			c0.4-0.5,0.6-1.3,0.6-2.2c0-1-0.2-1.7-0.6-2.2c-0.4-0.5-1-0.8-1.7-0.8c-0.8,0-1.3,0.2-1.7,0.8C133.2,67.6,133,68.4,133,69.4z"/>
		<path id="XMLID_147_" class="st1" d="M145.1,65.4c0.3,0,0.6,0,0.9,0.1l-0.2,1.1c-0.3-0.1-0.6-0.1-0.8-0.1c-0.6,0-1.2,0.3-1.6,0.8
			c-0.4,0.5-0.7,1.1-0.7,1.9v4.1h-1.2v-7.7h1l0.1,1.4h0.1c0.3-0.5,0.6-0.9,1-1.2C144.2,65.5,144.6,65.4,145.1,65.4z"/>
		<path id="XMLID_145_" class="st1" d="M158,73.2v-5c0-0.6-0.1-1.1-0.4-1.4c-0.3-0.3-0.7-0.5-1.2-0.5c-0.7,0-1.3,0.2-1.6,0.6
			c-0.3,0.4-0.5,1.1-0.5,1.9v4.3h-1.2v-5c0-0.6-0.1-1.1-0.4-1.4c-0.3-0.3-0.7-0.5-1.2-0.5c-0.7,0-1.3,0.2-1.6,0.7
			c-0.3,0.4-0.5,1.2-0.5,2.1v4h-1.2v-7.7h0.9l0.2,1.1h0.1c0.2-0.4,0.5-0.7,0.9-0.9c0.4-0.2,0.8-0.3,1.3-0.3c1.2,0,2,0.4,2.4,1.3h0.1
			c0.2-0.4,0.6-0.7,1-1c0.4-0.2,0.9-0.4,1.5-0.4c0.9,0,1.5,0.2,2,0.7c0.4,0.4,0.6,1.2,0.6,2.1v5H158z"/>
		<path id="XMLID_143_" class="st1" d="M168,73.2h-1.2V63h5.7V64H168v3.8h4.2v1.1H168V73.2z"/>
		<path id="XMLID_140_" class="st1" d="M181.4,69.4c0,1.3-0.3,2.2-0.9,2.9c-0.6,0.7-1.5,1.1-2.6,1.1c-0.7,0-1.3-0.2-1.8-0.5
			c-0.5-0.3-0.9-0.8-1.2-1.4c-0.3-0.6-0.4-1.3-0.4-2.1c0-1.3,0.3-2.2,0.9-2.9c0.6-0.7,1.5-1,2.6-1c1.1,0,1.9,0.4,2.6,1.1
			C181.1,67.2,181.4,68.1,181.4,69.4z M175.5,69.4c0,1,0.2,1.7,0.6,2.2c0.4,0.5,1,0.8,1.7,0.8c0.8,0,1.3-0.3,1.7-0.8
			c0.4-0.5,0.6-1.3,0.6-2.2c0-1-0.2-1.7-0.6-2.2c-0.4-0.5-1-0.8-1.7-0.8c-0.8,0-1.3,0.2-1.7,0.8C175.7,67.6,175.5,68.4,175.5,69.4z"
			/>
		<path id="XMLID_138_" class="st1" d="M187.6,65.4c0.3,0,0.6,0,0.9,0.1l-0.2,1.1c-0.3-0.1-0.6-0.1-0.8-0.1c-0.6,0-1.2,0.3-1.6,0.8
			c-0.4,0.5-0.7,1.1-0.7,1.9v4.1h-1.2v-7.7h1l0.1,1.4h0.1c0.3-0.5,0.6-0.9,1-1.2C186.7,65.5,187.1,65.4,187.6,65.4z"/>
		<path id="XMLID_136_" class="st1" d="M196.9,73.2l-1.4-4.5c-0.1-0.3-0.3-0.9-0.5-1.9H195c-0.2,0.8-0.4,1.4-0.5,1.9l-1.5,4.5h-1.3
			l-2.1-7.7h1.2c0.5,1.9,0.9,3.4,1.1,4.4c0.3,1,0.4,1.7,0.4,2h0.1c0.1-0.3,0.1-0.6,0.2-1c0.1-0.4,0.2-0.8,0.3-1l1.4-4.4h1.3l1.4,4.4
			c0.3,0.8,0.4,1.5,0.5,2h0.1c0-0.2,0.1-0.4,0.2-0.8c0.1-0.4,0.6-2.2,1.5-5.7h1.2l-2.1,7.7H196.9z"/>
		<path id="XMLID_133_" class="st1" d="M207.2,73.2l-0.2-1.1H207c-0.4,0.5-0.8,0.8-1.1,1c-0.4,0.2-0.9,0.3-1.4,0.3
			c-0.8,0-1.4-0.2-1.8-0.6c-0.4-0.4-0.6-1-0.6-1.7c0-1.6,1.2-2.4,3.7-2.4l1.3,0v-0.5c0-0.6-0.1-1-0.4-1.3c-0.3-0.3-0.7-0.4-1.2-0.4
			c-0.6,0-1.4,0.2-2.2,0.6l-0.4-0.9c0.4-0.2,0.8-0.4,1.2-0.5c0.5-0.1,0.9-0.2,1.4-0.2c0.9,0,1.6,0.2,2,0.6c0.4,0.4,0.7,1.1,0.7,2
			v5.2H207.2z M204.6,72.4c0.7,0,1.3-0.2,1.7-0.6c0.4-0.4,0.6-1,0.6-1.7v-0.7l-1.2,0c-0.9,0-1.6,0.2-2,0.4c-0.4,0.3-0.6,0.7-0.6,1.2
			c0,0.4,0.1,0.7,0.4,1C203.8,72.3,204.2,72.4,204.6,72.4z"/>
		<path id="XMLID_131_" class="st1" d="M214.7,65.4c0.3,0,0.6,0,0.9,0.1l-0.2,1.1c-0.3-0.1-0.6-0.1-0.8-0.1c-0.6,0-1.2,0.3-1.6,0.8
			c-0.4,0.5-0.7,1.1-0.7,1.9v4.1h-1.2v-7.7h1l0.1,1.4h0.1c0.3-0.5,0.6-0.9,1-1.2C213.8,65.5,214.2,65.4,214.7,65.4z"/>
		<path id="XMLID_128_" class="st1" d="M223,72.2L223,72.2c-0.6,0.8-1.4,1.2-2.5,1.2c-1,0-1.8-0.3-2.3-1c-0.6-0.7-0.8-1.7-0.8-2.9
			s0.3-2.3,0.8-3c0.6-0.7,1.3-1.1,2.3-1.1c1,0,1.8,0.4,2.4,1.1h0.1l0-0.6l0-0.5v-3.1h1.2v10.9h-0.9L223,72.2z M220.6,72.4
			c0.8,0,1.4-0.2,1.7-0.6c0.4-0.4,0.5-1.1,0.5-2.1v-0.2c0-1.1-0.2-1.9-0.5-2.3c-0.4-0.5-0.9-0.7-1.7-0.7c-0.7,0-1.2,0.3-1.6,0.8
			c-0.4,0.5-0.5,1.3-0.5,2.2c0,1,0.2,1.7,0.5,2.2C219.4,72.1,219.9,72.4,220.6,72.4z"/>
		<path id="XMLID_126_" class="st1" d="M228.4,71.5l0.1,0.2c-0.1,0.5-0.3,1-0.5,1.6c-0.2,0.6-0.5,1.2-0.7,1.7h-0.9
			c0.1-0.5,0.3-1.1,0.4-1.8c0.2-0.7,0.3-1.3,0.3-1.7H228.4z"/>
		<path id="XMLID_124_" class="st1" d="M237.2,73.2H236V63h5.7V64h-4.5v3.8h4.2v1.1h-4.2V73.2z"/>
		<path id="XMLID_121_" class="st1" d="M248.7,73.2l-0.2-1.1h-0.1c-0.4,0.5-0.8,0.8-1.1,1c-0.4,0.2-0.9,0.3-1.4,0.3
			c-0.8,0-1.4-0.2-1.8-0.6c-0.4-0.4-0.6-1-0.6-1.7c0-1.6,1.2-2.4,3.7-2.4l1.3,0v-0.5c0-0.6-0.1-1-0.4-1.3c-0.3-0.3-0.7-0.4-1.2-0.4
			c-0.6,0-1.4,0.2-2.2,0.6l-0.4-0.9c0.4-0.2,0.8-0.4,1.2-0.5c0.5-0.1,0.9-0.2,1.4-0.2c0.9,0,1.6,0.2,2,0.6c0.4,0.4,0.7,1.1,0.7,2
			v5.2H248.7z M246.1,72.4c0.7,0,1.3-0.2,1.7-0.6c0.4-0.4,0.6-1,0.6-1.7v-0.7l-1.2,0c-0.9,0-1.6,0.2-2,0.4c-0.4,0.3-0.6,0.7-0.6,1.2
			c0,0.4,0.1,0.7,0.4,1C245.2,72.3,245.6,72.4,246.1,72.4z"/>
		<path id="XMLID_119_" class="st1" d="M257.6,71.1c0,0.7-0.3,1.3-0.8,1.7c-0.5,0.4-1.3,0.6-2.2,0.6c-1,0-1.8-0.2-2.4-0.5v-1.1
			c0.4,0.2,0.8,0.3,1.2,0.4c0.4,0.1,0.8,0.2,1.2,0.2c0.6,0,1.1-0.1,1.4-0.3c0.3-0.2,0.5-0.5,0.5-0.9c0-0.3-0.1-0.6-0.4-0.8
			c-0.3-0.2-0.8-0.5-1.5-0.8c-0.7-0.3-1.2-0.5-1.5-0.7c-0.3-0.2-0.5-0.4-0.7-0.7c-0.1-0.3-0.2-0.6-0.2-0.9c0-0.6,0.3-1.1,0.8-1.5
			c0.5-0.4,1.2-0.5,2.1-0.5c0.8,0,1.6,0.2,2.4,0.5l-0.4,0.9c-0.8-0.3-1.5-0.5-2.1-0.5c-0.6,0-1,0.1-1.2,0.3
			c-0.3,0.2-0.4,0.4-0.4,0.7c0,0.2,0.1,0.4,0.2,0.5c0.1,0.1,0.3,0.3,0.5,0.4c0.2,0.1,0.7,0.3,1.3,0.6c0.9,0.3,1.5,0.7,1.8,1
			C257.4,70.2,257.6,70.6,257.6,71.1z"/>
		<path id="XMLID_117_" class="st1" d="M262.7,72.4c0.2,0,0.4,0,0.6,0c0.2,0,0.3-0.1,0.5-0.1v0.9c-0.1,0.1-0.3,0.1-0.6,0.2
			c-0.2,0-0.5,0.1-0.7,0.1c-1.5,0-2.2-0.8-2.2-2.3v-4.6h-1.1v-0.6l1.1-0.5l0.5-1.6h0.7v1.8h2.2v0.9h-2.2v4.5c0,0.5,0.1,0.8,0.3,1.1
			C262,72.3,262.3,72.4,262.7,72.4z"/>
		<path id="XMLID_114_" class="st1" d="M269.2,73.3c-1.1,0-2-0.3-2.7-1c-0.7-0.7-1-1.7-1-2.9c0-1.2,0.3-2.2,0.9-3
			c0.6-0.7,1.4-1.1,2.5-1.1c1,0,1.7,0.3,2.3,1c0.6,0.6,0.8,1.5,0.8,2.5v0.7h-5.3c0,0.9,0.3,1.6,0.7,2.1c0.4,0.5,1,0.7,1.8,0.7
			c0.8,0,1.6-0.2,2.5-0.5v1c-0.4,0.2-0.8,0.3-1.2,0.4C270.1,73.3,269.7,73.3,269.2,73.3z M268.9,66.4c-0.6,0-1.1,0.2-1.5,0.6
			c-0.4,0.4-0.6,1-0.6,1.7h4c0-0.7-0.2-1.3-0.5-1.7C269.9,66.6,269.5,66.4,268.9,66.4z"/>
		<path id="XMLID_108_" class="st1" d="M278.2,65.4c0.3,0,0.6,0,0.9,0.1l-0.2,1.1c-0.3-0.1-0.6-0.1-0.8-0.1c-0.6,0-1.2,0.3-1.6,0.8
			c-0.4,0.5-0.7,1.1-0.7,1.9v4.1h-1.2v-7.7h1l0.1,1.4h0.1c0.3-0.5,0.6-0.9,1-1.2S277.7,65.4,278.2,65.4z"/>
	</g>
	<g id="XMLID_98_">
		<path id="XMLID_99_" class="st1" d="M289.9,25.5c0,2.8-2.2,5-5,5c-2.8,0-5.1-2.2-5.1-5c0-2.7,2.3-4.9,5.1-4.9
			C287.7,20.6,289.9,22.8,289.9,25.5z M281,25.5c0,2.2,1.6,3.9,3.8,3.9c2.2,0,3.8-1.7,3.8-3.9c0-2.2-1.6-4-3.8-4
			C282.6,21.6,281,23.4,281,25.5z M284,28.1h-1.1v-4.9c0.5-0.1,1.1-0.2,1.9-0.2c0.9,0,1.4,0.2,1.7,0.4c0.3,0.2,0.5,0.6,0.5,1.1
			c0,0.5-0.4,1-1,1.1v0.1c0.5,0.2,0.8,0.5,0.9,1.2c0.1,0.8,0.2,1.1,0.4,1.2H286c-0.2-0.2-0.2-0.6-0.4-1.2c-0.1-0.5-0.4-0.8-1-0.8
			H284V28.1z M284.1,25.3h0.5c0.6,0,1.1-0.2,1.1-0.7c0-0.5-0.3-0.8-1.1-0.8c-0.3,0-0.5,0-0.6,0.1V25.3z"/>
	</g>
</g>
</svg>
